<?xml version="1.0" encoding="utf-8"?>
<!-- Generator: Adobe Illustrator 23.1.1, SVG Export Plug-In . SVG Version: 6.00 Build 0)  -->
<svg version="1.1" id="Layer_1" xmlns="http://www.w3.org/2000/svg" xmlns:xlink="http://www.w3.org/1999/xlink" x="0px" y="0px"
	 viewBox="40 40 280 280" style="enable-background:new 40 40 280 280;" xml:space="preserve">
<style type="text/css">
	.st0{fill:#FAA819;}
	.st1{fill:#FDB84B;}
	.st2{fill:#FFFFFF;}
</style>
<g>
	<path class="st0" d="M254.33,140.98c-2.17,0-4.27-1.18-5.33-3.24c-1.52-2.94-0.37-6.56,2.57-8.08l36.9-19.09L180.4,48.16
		l-108.08,62.4l36.9,19.09c2.94,1.52,4.09,5.14,2.57,8.08c-1.07,2.06-3.16,3.24-5.33,3.24c-0.93,0-1.87-0.22-2.75-0.67l-37.48-19.39
		V245.9l108.17,62.45v-54.88c0-3.31,2.69-6,6-6c3.31,0,6,2.69,6,6v54.89l108.17-62.45V120.91l-37.48,19.39
		C256.2,140.76,255.26,140.98,254.33,140.98z M152.81,206.93c-0.56,4.33-2.97,6.76-6.25,6.05c-3.67-0.79-4.39-3.64-4.17-6.97
		c2.76-11.19,0.59-22.89,3.71-34.05c1.29-4.6,3.7-8.56,6.92-11.96c1.92-2.02,4.53-1.85,6.64-0.16c1.94,1.56,2.92,3.91,1.17,6.06
		c-6.72,8.24-6.07,18.14-6.67,27.81C153.89,198.13,153.38,202.54,152.81,206.93z M185.36,212.38c-0.86,6.35-2.44,12.6-3.83,18.87
		c-1.11,4.97-3.66,7.25-6.9,6.48c-3.53-0.83-4.8-3.98-3.35-9.19c2.92-10.52,4.76-21.2,5.12-32.12c0.02-0.71-0.12-1.42-0.18-2.13
		c0.07-1.99,0.37-4,0.15-5.95c-0.34-3,0.93-4.92,3.51-6c2.52-1.05,4.72-0.35,6.41,1.82C187.56,193.62,186.63,203.04,185.36,212.38z
		 M201.04,214.75c-0.07,0.71-0.34,1.39-0.48,2.09c-0.65,3.25-2.66,4.59-5.89,4.17c-3.34-0.44-4.01-2.97-3.83-5.63
		c0.25-3.85,1.15-7.65,1.36-11.5c0.39-7.22,1.6-14.47-0.25-21.67c-2.32-5.95-6.73-8.55-13.14-7.74c-5.29,0.67-8.75,4.62-9.15,10.8
		c-0.24,3.86-0.13,7.73-0.17,11.6c-1.25,5.98-1.08,12.14-2.53,18.11c-0.82,3.36-1.89,6.37-5.99,5.49c-3.75-0.8-4.77-3.63-3.78-7.27
		c0.22-0.8,0.06-1.69,0.08-2.54c1.77-8.27,2.26-16.66,2.46-25.09c0.26-10.9,5.79-18.27,15.67-20.86c5.26-1.38,10.47-0.84,15.46,1.43
		c8.73,5.56,12.59,13.37,12.21,23.85C202.77,198.29,201.88,206.51,201.04,214.75z M220.45,201.3c-0.39,3.26-0.48,6.56-0.83,9.83
		c-0.37,3.52-2.21,5.63-5.96,5.14c-3.93-0.51-4.42-3.51-4.17-6.68c0.56-7.13,1.38-14.25,1.2-21.42
		c-0.27-10.57-4.74-18.92-13.43-24.96c-0.67-0.47-1.56-0.63-2.35-0.93c-5.04-3.12-10.63-3.83-16.4-3.66
		c-1.57,0.05-3.13,0.3-4.69,0.44c-3.12,0.27-5.52-0.99-5.97-4.11c-0.45-3.03,1.22-5.21,4.38-5.79c11.45-2.12,22.15-0.43,31.81,6.37
		c1.63,1.15,3.18,2.39,4.77,3.59C220.6,170.99,222.32,185.64,220.45,201.3z M219.44,160.4c-1.66-1.52-3.03-3.35-4.53-5.04
		c-14.88-15.28-35.71-18.77-51.92-11.07c-15.08,7.16-23.61,19.06-24.03,36.16c-0.05,2-0.27,4.01-0.41,6.01
		c-0.22,3.26-2.06,5.19-5.22,5.07c-2.97-0.11-4.86-2.33-4.76-5.16c0.18-5.13-0.26-10.33,0.99-15.4
		c8.06-32.67,41.51-49.24,73.19-36.35c7.19,2.92,13.14,7.52,18.87,12.55c1.69,2.28,3.37,4.57,5.08,6.84
		c1.78,2.36,1.48,4.6-0.67,6.42C223.93,162.18,221.52,162.31,219.44,160.4z M230.66,194.31c-3.94-0.02-4.58-2.94-4.55-5.86
		c0.05-4.17-0.61-8.25-0.86-12.38c-0.18-2.96,0.2-6.01,3.77-6.47c3.58-0.47,5.52,1.79,5.92,5.29c0.51,4.39,0.96,8.79,1.35,12.32
		C236.2,191.89,234.05,194.33,230.66,194.31z"/>
	<path class="st1" d="M106.46,140.98c2.17,0,4.27-1.18,5.33-3.24c1.52-2.94,0.37-6.56-2.57-8.08l-36.9-19.09l-6.09,3.52v6.84
		l37.48,19.39C104.59,140.76,105.53,140.98,106.46,140.98z"/>
	<path class="st1" d="M288.47,110.56l-36.9,19.09c-2.94,1.52-4.09,5.14-2.57,8.08c1.07,2.06,3.16,3.24,5.33,3.24
		c0.93,0,1.87-0.22,2.75-0.67l37.48-19.39v-6.84L288.47,110.56z"/>
	<path class="st2" d="M226.69,153.98c-1.71-2.27-3.39-4.56-5.08-6.84c-5.72-5.03-11.68-9.62-18.87-12.55
		c-31.68-12.88-65.13,3.68-73.19,36.35c-1.25,5.08-0.81,10.27-0.99,15.4c-0.1,2.83,1.79,5.05,4.76,5.16
		c3.16,0.12,4.99-1.81,5.22-5.07c0.14-2,0.36-4,0.41-6.01c0.42-17.11,8.95-29,24.03-36.16c16.21-7.7,37.05-4.21,51.92,11.07
		c1.5,1.69,2.88,3.52,4.53,5.04c2.08,1.92,4.5,1.78,6.58,0.01C228.17,158.58,228.47,156.35,226.69,153.98z"/>
	<path class="st2" d="M190.86,166.13c-4.99-2.26-10.2-2.81-15.46-1.43c-9.88,2.59-15.41,9.96-15.67,20.86
		c-0.2,8.43-0.69,16.82-2.46,25.09c-0.02,0.85,0.13,1.74-0.08,2.54c-0.99,3.64,0.04,6.47,3.78,7.27c4.1,0.88,5.18-2.13,5.99-5.49
		c1.45-5.97,1.28-12.13,2.53-18.11c0.05-3.87-0.07-7.75,0.17-11.6c0.39-6.18,3.86-10.13,9.15-10.8c6.41-0.81,10.81,1.79,13.14,7.74
		c1.85,7.2,0.64,14.45,0.25,21.67c-0.21,3.84-1.1,7.65-1.36,11.5c-0.18,2.66,0.49,5.19,3.83,5.63c3.22,0.43,5.24-0.91,5.89-4.17
		c0.14-0.7,0.41-1.39,0.48-2.09c0.84-8.24,1.73-16.46,2.03-24.77C203.45,179.5,199.59,171.7,190.86,166.13z"/>
	<path class="st2" d="M204.03,155.53c-9.66-6.81-20.36-8.5-31.81-6.37c-3.17,0.59-4.83,2.76-4.38,5.79
		c0.46,3.11,2.85,4.38,5.97,4.11c1.57-0.14,3.13-0.39,4.69-0.44c5.77-0.17,11.36,0.54,16.4,3.66c0.79,0.3,1.68,0.46,2.35,0.93
		c8.69,6.04,13.16,14.38,13.43,24.96c0.18,7.17-0.64,14.29-1.2,21.42c-0.25,3.17,0.24,6.17,4.17,6.68c3.75,0.49,5.59-1.62,5.96-5.14
		c0.35-3.27,0.43-6.57,0.83-9.83c1.88-15.66,0.16-30.3-11.65-42.17C207.21,157.93,205.66,156.68,204.03,155.53z"/>
	<path class="st2" d="M179.87,182.34c-2.58,1.08-3.85,3-3.51,6c0.22,1.95-0.08,3.97-0.15,5.95c0.06,0.71,0.2,1.42,0.18,2.13
		c-0.36,10.92-2.2,21.6-5.12,32.12c-1.45,5.21-0.18,8.36,3.35,9.19c3.25,0.77,5.8-1.51,6.9-6.48c1.39-6.27,2.97-12.52,3.83-18.87
		c1.27-9.35,2.2-18.77,0.93-28.23C184.58,182,182.39,181.29,179.87,182.34z"/>
	<path class="st2" d="M229.02,169.6c-3.57,0.47-3.95,3.52-3.77,6.47c0.25,4.13,0.91,8.21,0.86,12.38c-0.03,2.92,0.61,5.84,4.55,5.86
		c3.38,0.02,5.54-2.42,5.63-7.11c-0.38-3.53-0.84-7.92-1.35-12.32C234.54,171.38,232.6,169.13,229.02,169.6z"/>
	<path class="st2" d="M159.66,159.84c-2.11-1.69-4.72-1.86-6.64,0.16c-3.22,3.4-5.64,7.36-6.92,11.96
		c-3.12,11.16-0.95,22.86-3.71,34.05c-0.22,3.33,0.51,6.19,4.17,6.97c3.28,0.7,5.7-1.72,6.25-6.05c0.56-4.39,1.07-8.8,1.35-13.22
		c0.6-9.67-0.05-19.57,6.67-27.81C162.58,163.75,161.6,161.4,159.66,159.84z"/>
	<path class="st1" d="M180.4,247.47c-3.31,0-6,2.69-6,6v54.88l6,3.46l6-3.46v-54.89C186.39,250.16,183.71,247.47,180.4,247.47z"/>
</g>
</svg>
