<?xml version="1.0" encoding="UTF-8"?>
<svg width="200px" height="230px" viewBox="0 0 200 230" version="1.1" xmlns="http://www.w3.org/2000/svg" xmlns:xlink="http://www.w3.org/1999/xlink">
    <!-- Generator: Sketch 46.2 (44496) - http://www.bohemiancoding.com/sketch -->
    <!-- Fingerprint icon ATTRIBUTION: Font Awesome; modifications were made to mask within the outer svg. See license here: https://fontawesome.com/license -->
    <title>icon</title>
    <desc>Created with Sketch.</desc>
    <defs>
        <linearGradient x1="0%" y1="0%" x2="64.8950028%" y2="91.4765834%" id="linearGradient-1">
            <stop stop-color="#3023AE" offset="0%"></stop>
            <stop stop-color="#C86DD7" offset="100%"></stop>
        </linearGradient>
    </defs>
    <g id="Page-1" stroke="none" stroke-width="1" fill="none" fill-rule="evenodd">
        <g id="icon" fill-rule="nonzero">
            <polygon id="Polygon" fill="url(#linearGradient-1)" points="100 0 200 57.5 200 172.5 100 230 0 172.5 0 57.5"></polygon>
            <g id="Group" transform="translate(42.000000, 57.000000)" fill="#FFFFFF">
                <path d="M115.184606,26.6234136 C115.066629,25.6402742 114.358769,24.8144372 113.414955,24.5784837 C74.3253348,14.3538345 59.5782446,0.904488202 59.4602679,0.78651148 C58.5164541,-0.078651148 57.1007334,-0.078651148 56.1569196,0.78651148 C55.9996173,0.904488202 41.2918527,14.3538345 2.20223214,24.5784837 C1.25841837,24.8144372 0.550558036,25.6402742 0.432581314,26.6234136 C0.353930166,27.2526228 -6.41006856,91.3926339 56.9827567,115.302583 C57.2580357,115.42056 57.5333147,115.459885 57.8085938,115.459885 C58.0838728,115.459885 58.3984774,115.42056 58.6344308,115.302583 C122.027256,91.3926339 115.263257,27.2526228 115.184606,26.6234136 Z M57.8085938,84.2353795 C43.2188058,84.2353795 31.381808,72.3590561 31.381808,57.8085938 C31.381808,43.2188058 43.2188058,31.381808 57.8085938,31.381808 C72.3983817,31.381808 84.2353795,43.2188058 84.2353795,57.8085938 C84.2353795,72.3590561 72.3983817,84.2353795 57.8085938,84.2353795 Z" id="Shape"></path>
                <path d="M58.0088748,57.2156223 C56.9737064,57.2156223 56.1338528,58.0546849 56.1338528,59.0906226 C56.2229164,64.7351545 55.4979079,70.1765615 53.969765,75.6179684 C53.7564813,76.3773435 54.1377357,78 55.7760362,78 C56.5947957,78 57.3471483,77.4593749 57.5799635,76.6312498 C58.6370071,72.8882806 60.0049919,66.8335923 59.8831155,59.0906226 C59.8838967,58.0554662 59.0448244,57.2156223 58.0088748,57.2156223 Z M57.9416865,50.8304653 C53.155693,50.8249965 49.8158102,54.5078095 49.8822172,58.7281225 C49.9408116,62.4734355 49.589245,66.2210922 48.8376737,69.8648427 C48.627515,70.8789053 49.2806476,71.8718742 50.2939407,72.080468 C51.3134839,72.2890618 52.299433,71.6382804 52.5095917,70.6242178 C53.3174136,66.710936 53.6947618,62.6882793 53.6322611,58.6695288 C53.6002294,56.6421848 55.1885293,54.568747 57.8862171,54.5804657 C60.3323395,54.6171845 62.3511131,56.5601535 62.3878323,58.91406 C62.4479892,62.6679668 62.1682985,66.4398423 61.5589163,70.1289052 C61.3893831,71.1492179 62.0815787,72.114843 63.1026844,72.283593 C64.6628589,72.5437493 65.1972402,71.1039054 65.2573971,70.7390616 C65.9042797,66.8304673 66.1995956,62.8320293 66.1378762,58.8554663 C66.0691254,54.4960907 62.3925198,50.8960903 57.9416865,50.8304653 Z M49.293929,49.2851526 C48.4892321,48.63359 47.3118746,48.7539025 46.6563982,49.5570276 C44.6548123,52.0179654 43.5790184,55.1257783 43.629019,58.3070287 C43.6751133,61.2429666 43.436048,64.1874982 42.9172919,67.0609361 C42.7344773,68.0804675 43.4102664,69.0554676 44.4298096,69.2398426 C46.0009218,69.5132802 46.5446781,68.0828112 46.6087414,67.7273424 C47.1704667,64.614842 47.4290635,61.4257791 47.3790629,58.248435 C47.3423437,55.9140597 48.0978213,53.7265594 49.5665885,51.9226529 C50.2189399,51.1195278 50.0970634,49.9390589 49.293929,49.2851526 Z M57.8463729,44.4156207 C56.6424525,44.3835894 55.4346259,44.5281207 54.2697685,44.803902 C53.2627255,45.0429645 52.6392807,46.0523396 52.8767835,47.0609335 C53.1158488,48.0679649 54.1267981,48.6882775 55.1338411,48.4539024 C55.9971325,48.2499962 56.8893304,48.1593712 57.7901222,48.1656212 C63.6831599,48.2539024 68.5504044,52.9703093 68.6402492,58.679685 C68.6863435,61.6390604 68.540248,64.6257795 68.2043066,67.5570299 C68.0871177,68.5859363 68.8254076,69.5164052 69.8535446,69.6335927 C71.1598099,69.7859364 71.8465367,68.7054676 71.9301315,67.9843737 C72.285127,64.8764562 72.4388347,61.7488403 72.3902931,58.6210913 C72.2684167,50.9062465 65.7441216,44.5328082 57.8463729,44.4156207 L57.8463729,44.4156207 Z M77.5395721,53.9039031 C77.316132,52.894528 76.3278392,52.2476529 75.3043897,52.4765592 C74.2934404,52.6999967 73.6543704,53.6999969 73.8778105,54.7117158 C74.2457835,56.3843722 74.2614087,57.6343724 74.2450023,59.5242164 C74.2364084,60.5609353 75.0692307,61.4062479 76.1043991,61.4148416 L76.1200242,61.4148416 C77.1489425,61.4148416 77.9864523,60.5859353 77.9950462,59.5554664 C78.0091088,57.8226537 78.0262965,56.1093722 77.5395721,53.9039031 Z M74.4051604,46.8164022 C70.6004284,41.3953078 64.3745743,38.1007761 57.750278,38.0015574 C52.2978705,37.9359323 47.2548427,39.9460889 43.5040175,43.6984331 C39.8813189,47.3257773 37.9289523,52.1437467 38.0102032,57.2695286 L38.0008281,58.9468725 C37.970359,59.9820289 38.7844311,60.8460915 39.8195994,60.875779 C39.8375684,60.8773415 39.8570999,60.8773415 39.8758501,60.8773415 C40.8852369,60.8773415 41.7188404,60.0726539 41.7485282,59.0570288 L41.7610284,57.2101536 C41.6961839,53.1085905 43.2579209,49.25234 46.1579548,46.3507772 C49.1861153,43.3195268 53.2939759,41.6890578 57.6955899,41.7523391 C63.1214346,41.8328078 68.2214943,44.5304644 71.337937,48.9703088 C71.9324752,49.8187464 73.1004576,50.0210901 73.9489051,49.4281213 C74.79579,48.8328087 75.0004799,47.6632773 74.4051604,46.8164022 Z" id="Shape"></path>
            </g>
        </g>
    </g>
</svg>
