<?xml version="1.0" encoding="utf-8"?>
<!-- Generator: Adobe Illustrator 23.1.1, SVG Export Plug-In . SVG Version: 6.00 Build 0)  -->
<svg version="1.1" id="Layer_1" xmlns="http://www.w3.org/2000/svg" xmlns:xlink="http://www.w3.org/1999/xlink" x="0px" y="0px"
	 viewBox="98 98 166 166" style="enable-background:new 98 98 166 166;" xml:space="preserve">
<style type="text/css">
	.st0{fill:#FAA819;}
</style>
<g>
	<path class="st0" d="M227.96,137.62c-21.97-22.57-52.74-27.72-76.68-16.36c-22.27,10.57-34.87,28.14-35.49,53.41
		c-0.07,2.96-0.4,5.92-0.6,8.87c-0.33,4.81-3.04,7.66-7.71,7.48c-4.39-0.16-7.17-3.44-7.03-7.62c0.26-7.58-0.39-15.25,1.46-22.74
		c11.9-48.25,61.3-72.71,108.09-53.69c10.62,4.32,19.41,11.1,27.86,18.53c2.5,3.37,4.98,6.75,7.51,10.1
		c2.63,3.49,2.18,6.79-0.99,9.49c-3.08,2.62-6.65,2.81-9.72-0.02C232.21,142.82,230.18,140.12,227.96,137.62z"/>
	<path class="st0" d="M142.84,219.29c2.61-12.22,3.33-24.6,3.63-37.06c0.38-16.09,8.56-26.98,23.15-30.8
		c7.77-2.03,15.47-1.23,22.84,2.11c12.89,8.22,18.6,19.74,18.04,35.22c-0.44,12.27-1.76,24.41-3,36.58
		c-0.11,1.04-0.5,2.05-0.71,3.09c-0.96,4.81-3.93,6.78-8.69,6.15c-4.93-0.65-5.92-4.39-5.66-8.31c0.38-5.68,1.7-11.3,2-16.98
		c0.57-10.66,2.36-21.37-0.37-32.01c-3.43-8.79-9.93-12.62-19.4-11.43c-7.81,0.98-12.93,6.82-13.51,15.94
		c-0.36,5.69-0.19,11.42-0.26,17.13c-1.85,8.82-1.6,17.93-3.74,26.74c-1.21,4.96-2.79,9.4-8.85,8.11
		c-5.53-1.18-7.05-5.37-5.58-10.74C143.04,221.87,142.82,220.54,142.84,219.29z"/>
	<path class="st0" d="M198.43,147.85c-7.44-4.61-15.7-5.65-24.21-5.4c-2.31,0.07-4.62,0.44-6.93,0.64c-4.61,0.4-8.15-1.47-8.82-6.07
		c-0.66-4.47,1.79-7.69,6.47-8.56c16.9-3.14,32.71-0.64,46.97,9.41c2.4,1.69,4.7,3.54,7.04,5.31
		c17.44,17.53,19.98,39.15,17.21,62.28c-0.58,4.82-0.71,9.69-1.22,14.52c-0.55,5.19-3.27,8.31-8.8,7.59
		c-5.81-0.76-6.53-5.19-6.17-9.87c0.83-10.53,2.05-21.04,1.78-31.63c-0.4-15.62-7.01-27.93-19.84-36.86
		C200.91,148.53,199.6,148.3,198.43,147.85z"/>
	<path class="st0" d="M185.7,180.16c1.88,13.97,0.51,27.88-1.37,41.68c-1.28,9.37-3.6,18.61-5.66,27.87
		c-1.63,7.34-5.4,10.7-10.2,9.57c-5.21-1.23-7.09-5.88-4.95-13.57c4.32-15.54,7.03-31.31,7.56-47.43c0.03-1.05-0.17-2.1-0.27-3.15
		c0.1-2.93,0.55-5.91,0.23-8.79c-0.5-4.43,1.37-7.27,5.19-8.86C179.95,175.93,183.19,176.97,185.7,180.16z"/>
	<path class="st0" d="M259.55,184.65c-0.13,6.92-3.31,10.53-8.31,10.5c-5.82-0.03-6.77-4.35-6.72-8.65
		c0.07-6.15-0.9-12.19-1.28-18.28c-0.27-4.37,0.3-8.87,5.57-9.56c5.29-0.69,8.15,2.64,8.75,7.81
		C258.31,172.95,258.98,179.45,259.55,184.65z"/>
	<path class="st0" d="M120.88,212.43c4.08-16.53,0.87-33.8,5.48-50.28c1.9-6.79,5.46-12.65,10.22-17.67
		c2.84-2.99,6.69-2.74,9.8-0.23c2.86,2.3,4.32,5.77,1.73,8.95c-9.93,12.17-8.96,26.79-9.85,41.07c-0.4,6.53-1.16,13.04-1.99,19.53
		c-0.82,6.39-4.39,9.98-9.23,8.94C121.63,221.57,120.56,217.35,120.88,212.43z"/>
</g>
</svg>
