<?xml version="1.0" encoding="UTF-8"?>
<svg width="101px" height="116px" viewBox="0 0 101 116" version="1.1" xmlns="http://www.w3.org/2000/svg" xmlns:xlink="http://www.w3.org/1999/xlink">
    <!-- Generator: Sketch 46.2 (44496) - http://www.bohemiancoding.com/sketch -->
    <!-- Fingerprint icon ATTRIBUTION: Font Awesome; modifications were made to mask within the outer svg. See license here: https://fontawesome.com/license -->
    <title>icon-mask</title>
    <desc>Created with Sketch.</desc>
    <defs></defs>
    <g id="Page-1" stroke="none" stroke-width="1" fill="none" fill-rule="evenodd">
        <g id="icon-mask" fill-rule="nonzero" fill="#000000">
            <path d="M50.5,0 L101,29 L101,87 L50.5,116 L0,87 L0,29 L50.5,0 Z M51.5355118,57 C49.6297617,57 48.083587,58.534055 48.083587,60.4280559 C48.2475535,70.7479326 46.9128092,80.6964366 44.0994906,90.6449406 C43.7068341,92.0333033 44.4087255,95 47.4248447,95 C48.9321852,95 50.31727,94.0115772 50.745884,92.4975192 C52.6919066,85.6542625 55.2103733,74.5844986 54.9859982,60.4280559 C54.9874365,58.5354834 53.4427002,57 51.5355118,57 Z M49.339127,46.000011 C40.7865705,45.9900838 34.8182095,52.6753953 34.9368787,60.3364163 C35.0415867,67.1351824 34.4133382,73.938203 33.0702825,80.5526055 C32.6947295,82.3934061 33.8618756,84.1959159 35.6726275,84.5745706 C37.4945482,84.9532252 39.2564363,83.7718794 39.6319893,81.9310787 C41.0755648,74.8274034 41.7498849,67.5251825 41.6381962,60.2300526 C41.5809558,56.5498694 44.419243,52.7860135 49.2400034,52.8072863 C53.611217,52.8739408 57.2187596,56.4009603 57.2843767,60.6739437 C57.391877,67.4883098 56.8920704,74.3352941 55.8031063,81.0319511 C55.5001509,82.8840972 56.7371024,84.6369706 58.5618154,84.943298 C61.3498427,85.4155527 62.3047804,82.8018426 62.4122807,82.1395515 C63.568258,75.0443853 64.0959868,67.7861281 63.9856943,60.56758 C63.8628368,52.6541226 57.2927533,46.1191384 49.339127,46.000011 Z M34.7324651,41.7604552 C33.2587896,40.5792007 31.1026449,40.797322 29.9022432,42.2533528 C26.2366542,46.7149257 24.2665074,52.3492548 24.3580756,58.116723 C24.44249,63.4394502 24.0046797,68.7777576 23.0546597,73.987175 C22.7198635,75.8355409 23.9574648,77.6031736 25.8245974,77.9374375 C28.7018415,78.4331678 29.6976455,75.83979 29.8149673,75.1953406 C30.8436786,69.5525132 31.3172579,63.7708813 31.2256897,58.0104951 C31.1584443,53.7783745 32.5419824,49.812532 35.2317979,46.5421282 C36.4264766,45.0860975 36.2032791,42.9459589 34.7324651,41.7604552 Z M50.2333677,33.0081807 C48.0190032,32.9485272 45.7974539,33.2176955 43.6549377,33.7312977 C41.8026886,34.1765167 40.6559898,36.05633 41.0928274,37.9346884 C41.532539,39.8101368 43.3919729,40.9653782 45.244222,40.528889 C46.8320693,40.1491434 48.4730844,39.9803676 50.1299062,39.9920073 C60.9689402,40.1564182 69.921238,48.9400352 70.0864891,59.5729113 C70.17127,65.0843144 69.9025574,70.6466414 69.2846621,76.1056659 C69.0691172,78.0218533 70.42705,79.7547153 72.3180972,79.9729599 C74.7207042,80.2566778 75.9837972,78.2444628 76.1375526,76.9015311 C76.790494,71.1134899 77.0732079,65.2887635 76.9839255,59.463789 C76.7597589,45.0960206 64.7596563,33.2264253 50.2333677,33.0081807 L50.2333677,33.0081807 Z M86.2264933,50.6239938 C85.8511198,48.8264277 84.1908141,47.6744272 82.4714461,48.0820795 C80.773078,48.4799928 79.6994574,50.2608632 80.0748308,52.0626031 C80.6930158,55.0413871 80.7192657,57.2674751 80.6917033,60.6330419 C80.6772659,62.4793036 82.0763852,63.9846956 83.8154406,64 L83.8416905,64 C85.570246,64 86.9772403,62.5238254 86.9916777,60.6886941 C87.0153026,57.6027796 87.0441775,54.5516478 86.2264933,50.6239938 Z M82.3599427,38.1858358 C75.2155912,28.2333697 63.5249675,22.1850126 51.0861674,22.0028591 C40.8478862,21.8823796 31.3783197,25.572781 24.335192,32.4616259 C17.5326544,39.1209861 13.8665899,47.9661884 14.0191592,57.3764968 L14.001555,60.4558951 C13.9443415,62.3563156 15.4729687,63.9426288 17.4167605,63.9971314 C17.4505017,64 17.4871771,64 17.5223854,64 C19.4177657,64 20.9830682,62.522692 21.0388146,60.6581285 L21.0622868,57.2674916 C20.9405248,49.7375237 23.8730831,42.6579196 29.318634,37.3310052 C35.0047749,31.7660003 42.7183273,28.7726588 50.9834765,28.8888355 C61.1718793,29.0365663 70.7485377,33.9891337 76.6004511,42.1401447 C77.7168478,43.6977723 79.9100316,44.0692507 81.5032074,42.9806325 C83.0934491,41.8877114 83.4778064,39.7405949 82.3599427,38.1858358 Z" id="Combined-Shape"></path>
        </g>
    </g>
</svg>
