<?xml version="1.0" encoding="UTF-8"?>
<svg width="200px" height="230px" viewBox="0 0 200 230" version="1.1" xmlns="http://www.w3.org/2000/svg" xmlns:xlink="http://www.w3.org/1999/xlink">
    <!-- Generator: Sketch 46.2 (44496) - http://www.bohemiancoding.com/sketch -->
    <!-- Fingerprint icon ATTRIBUTION: Font Awesome; modifications were made to mask within the outer svg. See license here: https://fontawesome.com/license -->
    <title>icon</title>
    <desc>Created with Sketch.</desc>
    <defs>
        <linearGradient x1="0%" y1="0%" x2="64.8950028%" y2="91.4765834%" id="linearGradient-1">
            <stop stop-color="#3023AE" offset="0%"></stop>
            <stop stop-color="#C86DD7" offset="100%"></stop>
        </linearGradient>
    </defs>
    <g id="Page-1" stroke="none" stroke-width="1" fill="none" fill-rule="evenodd">
        <g id="icon" fill-rule="nonzero">
            <polygon id="Polygon" fill="url(#linearGradient-1)" points="100 0 200 57.5 200 172.5 100 230 0 172.5 0 57.5"></polygon>
            <g id="Group" transform="translate(22.000000, 37.000000)" fill="#FFFFFF">
                <path d="M77.4411166,75 C73.2831164,75 69.9096444,78.2699594 69.9096444,82.3071719 C70.2673894,104.304804 67.3552201,125.510825 61.2170703,146.716847 C60.3603654,149.676252 61.8917647,156 68.4723885,156 C71.7611314,156 74.7831346,153.893099 75.7182924,150.665765 C79.9641598,136.078823 85.4589964,112.482747 84.9694507,82.3071719 C84.9725888,78.2730041 81.602255,75 77.4411166,75 Z M76.3135971,49.0000235 C57.8290394,48.9788962 44.9296786,63.2066105 45.1861571,79.5108346 C45.4124617,93.9800035 44.0546342,108.458227 41.1519009,122.535032 C40.3402218,126.452634 42.8627634,130.288744 46.7763239,131.094599 C50.7140235,131.900454 54.5219752,129.386307 55.3336543,125.468706 C58.45364,110.350628 59.9110415,94.8100038 59.6696499,79.2844709 C59.5459368,71.4522862 65.6802995,63.4420288 76.0993621,63.4873015 C85.5468238,63.6291561 93.3437708,71.135377 93.4855883,80.2291622 C93.7179277,94.7315311 92.6377005,109.303318 90.2841329,123.555178 C89.6293584,127.496925 92.3027697,131.227399 96.2465041,131.879326 C102.272241,132.884381 104.336138,127.32187 104.568478,125.912379 C107.06688,110.81241 108.207455,95.3653495 107.969081,80.0027984 C107.70355,63.1613378 93.5036927,49.2535509 76.3135971,49.0000235 Z M45.2699248,42.6236747 C42.0958545,40.1015366 37.4518506,40.5672552 34.86637,43.6760776 C26.9712552,53.2021386 22.7278622,65.2321927 22.925086,77.5465166 C23.1069016,88.9112586 22.1639254,100.309266 20.1177286,111.432076 C19.3966291,115.378587 22.0622319,119.152722 26.0837482,119.866421 C32.2808894,120.924872 34.4256981,115.38766 34.6783911,114.011673 C36.8940771,101.963474 37.9140939,89.6189088 37.7168701,77.3197056 C37.5720338,68.2835564 40.551962,59.8159466 46.3454108,52.8331927 C48.9185649,49.7243703 48.4378319,45.1548852 45.2699248,42.6236747 Z M76.7491476,26.0172316 C72.012868,25.8915785 67.2612208,26.4585501 62.6786167,27.5403931 C58.7168617,28.4781947 56.2642003,32.4378015 57.1985475,36.3943436 C58.1390417,40.3447563 62.1161643,42.778137 66.0779193,41.8587236 C69.4741483,41.058834 72.9840973,40.7033275 76.5278549,40.7278452 C99.7113443,41.0741576 118.859315,59.5758188 119.212768,81.972728 C119.394105,93.5818538 118.819359,105.298245 117.497749,116.797041 C117.036723,120.833265 119.94119,124.483336 123.98593,124.943043 C129.12484,125.540662 131.826455,121.302166 132.155321,118.473438 C133.55189,106.281606 134.156583,94.0125018 133.965619,81.7428746 C133.486151,51.4788519 107.819265,26.4769383 76.7491476,26.0172316 L76.7491476,26.0172316 Z M154.231985,62.903986 C153.373988,58.8594624 149.579004,56.2674612 145.64902,57.184679 C141.767035,58.0799837 139.313045,62.0869421 140.171042,66.1408571 C141.584036,72.8431211 141.644036,77.851819 141.581036,85.4243443 C141.548036,89.5784332 144.746023,92.9655652 148.721007,93 L148.781007,93 C152.731991,93 155.947978,89.6786072 155.980978,85.5495618 C156.034977,78.6062542 156.100977,71.7412075 154.231985,62.903986 Z M142.664228,34.2985568 C127.754277,13.2088072 103.356454,0.392050543 77.397219,0.00605858378 C56.0303713,-0.249243185 36.2677976,7.57089312 21.5690964,22.1686835 C7.37249624,36.2801848 -0.278421125,55.0235897 0.0399843997,74.9644814 L0.0032453007,81.489873 C-0.116156771,85.5169544 3.07402166,88.8784277 7.13063051,88.9939214 C7.20104711,89 7.2775869,89 7.3510651,89 C11.3066414,89 14.5733596,85.869514 14.6897001,81.9184152 L14.7386856,74.733494 C14.4845735,58.7771335 20.6046951,43.7751153 31.969323,32.48713 C43.836052,20.6946197 59.9339006,14.3515865 77.1829075,14.5977704 C98.4456611,14.910819 118.431731,25.4055452 130.64442,42.6779256 C132.974291,45.9786127 137.55137,46.7657932 140.876259,44.4589593 C144.195024,42.1430076 144.997161,37.5931654 142.664228,34.2985568 Z" id="Shape"></path>
            </g>
        </g>
    </g>
</svg>
